<?xml version="1.0" encoding="UTF-8"?>
<svg id="Layer_2" data-name="Layer 2" xmlns="http://www.w3.org/2000/svg" viewBox="0 0 187.38 47.19">
  <defs>
    <style>
      .cls-1 {
        fill: #fff;
        stroke-width: 0px;
      }
    </style>
  </defs>
  <g id="Layer_1-2" data-name="Layer 1">
    <g>
      <g>
        <path class="cls-1" d="m28.12,11.08v27.2h7.21V11.08h-7.21Z"/>
        <circle class="cls-1" cx="31.73" cy="3.61" r="3.61"/>
      </g>
      <path class="cls-1" d="m0,24.71c0-8.48,4.83-14.37,11.61-14.37,3.82,0,6.2,1.75,7.69,4.03h.16V.37h7.21v37.91h-6.95v-3.55h-.11c-1.59,2.6-4.29,4.35-8.11,4.35-6.84,0-11.51-5.57-11.51-14.37Zm19.62.16c0-5.2-1.7-8.7-6.31-8.7-3.98,0-5.99,3.5-5.99,8.54s2.07,8.33,5.78,8.33c4.29,0,6.52-3.18,6.52-8.17Z"/>
      <path class="cls-1" d="m54.26,35.26h-.11c-1.38,2.07-3.34,3.66-8.01,3.66-5.57,0-9.49-2.92-9.49-8.33,0-5.99,4.88-7.9,10.92-8.75,4.51-.64,6.57-1.01,6.57-3.08,0-1.96-1.54-3.23-4.56-3.23-3.39,0-5.04,1.22-5.25,3.82h-6.42c.21-4.77,3.76-8.96,11.72-8.96s11.45,3.66,11.45,10.02v13.84c0,2.07.32,3.29.95,3.76v.26h-6.95c-.42-.53-.69-1.8-.85-3.02Zm.05-6.58v-4.08c-1.27.74-3.23,1.17-5.04,1.59-3.76.85-5.62,1.7-5.62,4.24s1.7,3.45,4.24,3.45c4.14,0,6.42-2.55,6.42-5.2Z"/>
      <path class="cls-1" d="m62.55,29.48h6.68c.48,3.13,2.7,4.51,5.94,4.51s4.98-1.22,4.98-3.13c0-2.6-3.45-2.86-7.16-3.61-4.88-.95-9.65-2.28-9.65-8.22s4.88-8.7,11.08-8.7c7.16,0,11.14,3.55,11.67,9.01h-6.52c-.32-2.92-2.17-3.98-5.25-3.98-2.81,0-4.67,1.06-4.67,3.02,0,2.33,3.61,2.55,7.48,3.34,4.56.95,9.6,2.23,9.6,8.59,0,5.46-4.67,8.75-11.45,8.75-7.9,0-12.3-3.82-12.73-9.6Z"/>
      <path class="cls-1" d="m88.09,11.08h6.95v3.39h.16c1.75-2.39,4.29-4.14,8.01-4.14,7.21,0,11.82,5.89,11.82,14.37s-4.77,14.37-11.77,14.37c-3.82,0-6.31-1.54-7.85-3.87h-.11v11.98h-7.21V11.08Zm19.62,13.84c0-5.14-1.8-8.75-6.26-8.75s-6.31,3.87-6.31,8.75,2.28,8.17,6.58,8.17c3.66,0,5.99-3.02,5.99-8.17Z"/>
      <path class="cls-1" d="m116.53,24.71c0-8.11,5.78-14.37,14.21-14.37s14.21,6.26,14.21,14.37-5.78,14.37-14.21,14.37-14.21-6.26-14.21-14.37Zm21.1,0c0-5.3-2.49-8.91-6.89-8.91s-6.89,3.61-6.89,8.91,2.44,8.85,6.89,8.85,6.89-3.55,6.89-8.85Z"/>
      <path class="cls-1" d="m153.35,15.43h.16c1.64-3.08,3.5-4.67,6.68-4.67.8,0,1.27.05,1.7.21v6.31h-.16c-4.72-.48-8.11,2.01-8.11,7.74v13.26h-7.21V11.08h6.95v4.35Z"/>
      <path class="cls-1" d="m179.59,35.26h-.11c-1.38,2.07-3.34,3.66-8.01,3.66-5.57,0-9.49-2.92-9.49-8.33,0-5.99,4.88-7.9,10.92-8.75,4.51-.64,6.58-1.01,6.58-3.08,0-1.96-1.54-3.23-4.56-3.23-3.39,0-5.04,1.22-5.25,3.82h-6.42c.21-4.77,3.76-8.96,11.72-8.96s11.45,3.66,11.45,10.02v13.84c0,2.07.32,3.29.95,3.76v.26h-6.95c-.42-.53-.69-1.8-.85-3.02Zm.05-6.58v-4.08c-1.27.74-3.23,1.17-5.04,1.59-3.76.85-5.62,1.7-5.62,4.24s1.7,3.45,4.24,3.45c4.14,0,6.42-2.55,6.42-5.2Z"/>
    </g>
  </g>
</svg>